<svg width="32" height="32" viewBox="0 0 32 32" fill="none" xmlns="http://www.w3.org/2000/svg">
<rect width="32" height="32" rx="16" fill="white" fill-opacity="0.95"/>
<path d="M2.71369 17.7795L3.89705 10.8803L5.80912 11.2082L8.59773 16.0087L7.71069 15.8566L8.43084 11.6579L10.6977 12.0467L9.51439 18.946L7.60231 18.618L4.8137 13.8175L5.70075 13.9696L4.98059 18.1683L2.71369 17.7795ZM13.5079 15.1667L16.583 15.6941L16.2956 17.3696L13.2205 16.8422L13.5079 15.1667ZM13.2226 17.776L16.6723 18.3677L16.3714 20.1221L10.6351 19.1382L11.8185 12.2389L17.4266 13.2008L17.1257 14.9552L13.8042 14.3855L13.2226 17.776ZM18.9151 20.5584L17.8907 13.2804L20.2857 13.6912L21.0706 19.8221L19.8681 19.6159L22.7596 14.1155L24.8983 14.4824L25.6635 20.6099L24.5103 20.4121L27.3722 14.9067L29.58 15.2854L26.1889 21.806L23.6953 21.3783L23.0745 16.3611L23.7447 16.4761L21.4087 20.9861L18.9151 20.5584Z" fill="#A751BC"/>
</svg>
