<svg width="32" height="32" viewBox="0 0 32 32" fill="none" xmlns="http://www.w3.org/2000/svg">
<rect width="32" height="32" rx="16" fill="white" fill-opacity="0.95"/>
<path d="M25.3807 9.31694C24.8676 8.79376 24.2583 8.37873 23.5878 8.09557C22.9172 7.81241 22.1985 7.66667 21.4727 7.66667C20.7468 7.66667 20.0281 7.81241 19.3576 8.09557C18.687 8.37873 18.0778 8.79376 17.5646 9.31694L16.4997 10.4022L15.4348 9.31694C14.3983 8.26064 12.9926 7.66722 11.5268 7.66722C10.061 7.66722 8.65523 8.26064 7.61876 9.31694C6.58229 10.3732 6 11.8059 6 13.2997C6 14.7936 6.58229 16.2262 7.61876 17.2825L8.68367 18.3678L16.4997 26.3333L24.3158 18.3678L25.3807 17.2825C25.8941 16.7596 26.3013 16.1387 26.5791 15.4553C26.857 14.7719 27 14.0394 27 13.2997C27 12.56 26.857 11.8275 26.5791 11.1442C26.3013 10.4608 25.8941 9.83988 25.3807 9.31694Z" fill="white" fill-opacity="0.1" stroke="#A751BC" stroke-width="2" stroke-linecap="round" stroke-linejoin="round"/>
</svg>
