<svg width="40" height="32" viewBox="0 0 40 32" fill="none" xmlns="http://www.w3.org/2000/svg">
<path d="M7 0H23C24.625 0 26 1.375 26 3V6H29.125C30.1875 6 31.1875 6.4375 32 7.1875L36.8125 12C37.5625 12.75 38 13.8125 38 14.875V22C39.0625 22 40 22.9375 40 24C40 25.125 39.0625 26 38 26H36C36 29.3125 33.3125 32 30 32C26.625 32 24 29.3125 24 26H16C16 29.3125 13.3125 32 10 32C6.625 32 4 29.3125 4 26V18H13C13.5 18 14 17.5625 14 17C14 16.5 13.5 16 13 16H1C0.4375 16 0 15.5625 0 15C0 14.5 0.4375 14 1 14H15C15.5 14 16 13.5625 16 13C16 12.5 15.5 12 15 12H3C2.4375 12 2 11.5625 2 11C2 10.5 2.4375 10 3 10H17C17.5 10 18 9.5625 18 9C18 8.5 17.5 8 17 8H1C0.4375 8 0 7.5625 0 7C0 6.5 0.4375 6 1 6H4V3C4 1.375 5.3125 0 7 0ZM34 14.875L29.125 10H26V16H34V14.875ZM10 29C11.625 29 13 27.6875 13 26C13 24.375 11.625 23 10 23C8.3125 23 7 24.375 7 26C7 27.6875 8.3125 29 10 29ZM33 26C33 24.375 31.625 23 30 23C28.3125 23 27 24.375 27 26C27 27.6875 28.3125 29 30 29C31.625 29 33 27.6875 33 26Z" fill="#D4BDED"/>
</svg>
