<svg width="37" height="36" viewBox="0 0 37 36" fill="none" xmlns="http://www.w3.org/2000/svg">
<path d="M13.6836 21.375C13.6836 24.255 16.0536 26.625 18.9336 26.625C21.8136 26.625 24.1836 24.255 24.1836 21.375" stroke="#040011" stroke-width="2" stroke-miterlimit="10" stroke-linecap="round" stroke-linejoin="round"/>
<path d="M14.1486 3L8.71857 8.445" stroke="#040011" stroke-width="2" stroke-miterlimit="10" stroke-linecap="round" stroke-linejoin="round"/>
<path d="M23.7186 3L29.1486 8.445" stroke="#040011" stroke-width="2" stroke-miterlimit="10" stroke-linecap="round" stroke-linejoin="round"/>
<path d="M3.93359 11.7749C3.93359 8.9999 5.41859 8.7749 7.26359 8.7749H30.6036C32.4486 8.7749 33.9336 8.9999 33.9336 11.7749C33.9336 14.9999 32.4486 14.7749 30.6036 14.7749H7.26359C5.41859 14.7749 3.93359 14.9999 3.93359 11.7749Z" stroke="#040011" stroke-width="2"/>
<path d="M6.18359 15L8.29859 27.96C8.77859 30.87 9.93359 33 14.2236 33H23.2686C27.9336 33 28.6236 30.96 29.1636 28.14L31.6836 15" stroke="#040011" stroke-width="2" stroke-linecap="round"/>
</svg>
