<svg width="23" height="15" viewBox="0 0 23 15" fill="none" xmlns="http://www.w3.org/2000/svg">
<path d="M21.5945 2.79496H1.34446C0.883206 2.79496 0.500706 2.38412 0.500706 1.88871C0.500706 1.39329 0.883206 0.982456 1.34446 0.982456H21.5945C22.0557 0.982456 22.4382 1.39329 22.4382 1.88871C22.4382 2.38412 22.0557 2.79496 21.5945 2.79496Z" fill="white" fill-opacity="0.95"/>
<path d="M21.5945 8.8367H1.34446C0.883206 8.8367 0.500706 8.42586 0.500706 7.93045C0.500706 7.43503 0.883206 7.0242 1.34446 7.0242H21.5945C22.0557 7.0242 22.4382 7.43503 22.4382 7.93045C22.4382 8.42586 22.0557 8.8367 21.5945 8.8367Z" fill="white" fill-opacity="0.95"/>
<path d="M21.5945 14.8784H1.34446C0.883206 14.8784 0.500706 14.4676 0.500706 13.9722C0.500706 13.4768 0.883206 13.0659 1.34446 13.0659H21.5945C22.0557 13.0659 22.4382 13.4768 22.4382 13.9722C22.4382 14.4676 22.0557 14.8784 21.5945 14.8784Z" fill="white" fill-opacity="0.95"/>
</svg>
