<svg width="26" height="30" viewBox="0 0 26 30" fill="none" xmlns="http://www.w3.org/2000/svg">
<path d="M11.62 29.2025C10.98 29.2025 10.3533 29.0425 9.76665 28.7225C8.59332 28.0692 7.88665 26.8825 7.88665 25.5492V18.4825C7.88665 17.8158 7.44665 16.8158 7.03332 16.3092L2.04665 11.0292C1.20665 10.1892 0.56665 8.74916 0.56665 7.66916V4.60249C0.56665 2.46916 2.17998 0.80249 4.23332 0.80249H21.8333C23.86 0.80249 25.5 2.44249 25.5 4.46916V7.40249C25.5 8.80249 24.66 10.3892 23.8733 11.1758L18.1 16.2825C17.54 16.7492 17.1 17.7758 17.1 18.6025V24.3358C17.1 25.5225 16.3533 26.8958 15.42 27.4558L13.58 28.6425C12.98 29.0158 12.3 29.2025 11.62 29.2025ZM4.23332 2.80249C3.29998 2.80249 2.56665 3.58916 2.56665 4.60249V7.66916C2.56665 8.16249 2.96665 9.12249 3.47332 9.62916L8.55332 14.9758C9.23332 15.8158 9.89998 17.2158 9.89998 18.4692V25.5358C9.89998 26.4025 10.5 26.8292 10.7533 26.9625C11.3133 27.2692 11.9933 27.2692 12.5133 26.9492L14.3666 25.7625C14.74 25.5358 15.1133 24.8158 15.1133 24.3358V18.6025C15.1133 17.1758 15.8066 15.6025 16.8066 14.7625L22.5133 9.70916C22.9666 9.25582 23.5133 8.17582 23.5133 7.38916V4.46916C23.5133 3.54916 22.7667 2.80249 21.8466 2.80249H4.23332Z" fill="#040011"/>
<path d="M5.03331 13.3357C4.84665 13.3357 4.67331 13.2824 4.49998 13.1891C4.03331 12.8957 3.88665 12.2691 4.17998 11.8024L10.7533 1.26905C11.0466 0.802386 11.66 0.655719 12.1266 0.949052C12.5933 1.24239 12.74 1.85572 12.4466 2.32239L5.87331 12.8557C5.68665 13.1624 5.36665 13.3357 5.03331 13.3357Z" fill="#040011"/>
</svg>
