<svg width="32" height="32" viewBox="0 0 32 32" fill="none" xmlns="http://www.w3.org/2000/svg">
<rect width="32" height="32" rx="16" fill="white" fill-opacity="0.95"/>
<path d="M25.3807 9.3169C24.8676 8.79371 24.2583 8.37869 23.5878 8.09553C22.9172 7.81237 22.1985 7.66663 21.4727 7.66663C20.7468 7.66663 20.0281 7.81237 19.3576 8.09553C18.687 8.37869 18.0778 8.79371 17.5646 9.3169L16.4997 10.4022L15.4348 9.3169C14.3983 8.2606 12.9926 7.66717 11.5268 7.66717C10.061 7.66717 8.65523 8.2606 7.61876 9.3169C6.58229 10.3732 6 11.8058 6 13.2997C6 14.7935 6.58229 16.2262 7.61876 17.2825L8.68367 18.3677L16.4997 26.3333L24.3158 18.3677L25.3807 17.2825C25.8941 16.7595 26.3013 16.1386 26.5791 15.4552C26.857 14.7719 27 14.0394 27 13.2997C27 12.56 26.857 11.8275 26.5791 11.1441C26.3013 10.4607 25.8941 9.83983 25.3807 9.3169Z" fill="white" fill-opacity="0.1" stroke="#A751BC" stroke-width="2" stroke-linecap="round" stroke-linejoin="round"/>
</svg>
