<svg width="36" height="36" viewBox="0 0 36 36" fill="none" xmlns="http://www.w3.org/2000/svg">
<path d="M31.4661 6.887C30.6842 6.13025 29.7558 5.52994 28.734 5.12037C27.7122 4.71081 26.617 4.5 25.511 4.5C24.405 4.5 23.3098 4.71081 22.288 5.12037C21.2662 5.52994 20.3378 6.13025 19.5559 6.887L17.9332 8.45678L16.3105 6.887C14.7311 5.35914 12.589 4.50079 10.3554 4.50079C8.12177 4.50079 5.97966 5.35914 4.40027 6.887C2.82089 8.41486 1.93359 10.4871 1.93359 12.6478C1.93359 14.8085 2.82089 16.8807 4.40027 18.4086L6.023 19.9784L17.9332 31.5L29.8434 19.9784L31.4661 18.4086C32.2484 17.6522 32.8689 16.7541 33.2923 15.7657C33.7157 14.7772 33.9336 13.7178 33.9336 12.6478C33.9336 11.5778 33.7157 10.5184 33.2923 9.52992C32.8689 8.54147 32.2484 7.64339 31.4661 6.887Z" fill="#A751BC" stroke="#A751BC" stroke-width="3" stroke-linecap="round" stroke-linejoin="round"/>
</svg>
