<svg width="11" height="15" viewBox="0 0 11 15" fill="none" xmlns="http://www.w3.org/2000/svg">
<path d="M4.92712 13.9219C3.50525 12.1445 0.333374 7.90625 0.333374 5.5C0.333374 2.60156 2.65759 0.25 5.58337 0.25C8.48181 0.25 10.8334 2.60156 10.8334 5.5C10.8334 7.90625 7.63416 12.1445 6.21228 13.9219C5.88416 14.332 5.25525 14.332 4.92712 13.9219ZM5.58337 7.25C6.54041 7.25 7.33337 6.48438 7.33337 5.5C7.33337 4.54297 6.54041 3.75 5.58337 3.75C4.599 3.75 3.83337 4.54297 3.83337 5.5C3.83337 6.48438 4.599 7.25 5.58337 7.25Z" fill="#D4BDED"/>
</svg>
