<svg width="36" height="36" viewBox="0 0 36 36" fill="none" xmlns="http://www.w3.org/2000/svg">
<path d="M17.6205 19.6084C17.4964 19.5932 17.3708 19.5932 17.2467 19.6084C15.9255 19.565 14.6734 19.0216 13.7548 18.0929C12.8362 17.1643 12.3231 15.9233 12.3238 14.6319C12.3238 11.8773 14.5983 9.64014 17.4336 9.64014C18.7725 9.63787 20.0587 10.1497 21.0148 11.0652C21.971 11.9808 22.5206 13.2267 22.5452 14.5345C22.5697 15.8422 22.0672 17.107 21.146 18.0561C20.2247 19.0053 18.9586 19.5628 17.6205 19.6084ZM27.9336 29.6528C25.0707 32.2234 21.3221 33.6469 17.4336 33.6401C13.3831 33.6401 9.70659 32.1335 6.93359 29.6528C7.08938 28.2222 8.0241 26.8221 9.69101 25.7264C13.9596 22.9565 20.9388 22.9565 25.1762 25.7264C26.8431 26.8221 27.7778 28.2222 27.9336 29.6528Z" stroke="#040011" stroke-width="2" stroke-linecap="round" stroke-linejoin="round"/>
<path d="M17.4336 33.6401C25.9942 33.6401 32.9336 26.7008 32.9336 18.1401C32.9336 9.57949 25.9942 2.64014 17.4336 2.64014C8.87294 2.64014 1.93359 9.57949 1.93359 18.1401C1.93359 26.7008 8.87294 33.6401 17.4336 33.6401Z" stroke="#040011" stroke-width="2" stroke-linecap="round" stroke-linejoin="round"/>
</svg>
