<svg width="49" height="32" viewBox="0 0 49 32" fill="none" xmlns="http://www.w3.org/2000/svg">
<rect width="49" height="32" rx="16" fill="#FF9700"/>
<path d="M9.452 21.224C8.63067 21.224 7.83733 21.1307 7.072 20.944C6.30667 20.7573 5.67667 20.5147 5.182 20.216L6.246 17.808C6.71267 18.0787 7.23067 18.298 7.8 18.466C8.37867 18.6247 8.93867 18.704 9.48 18.704C9.79733 18.704 10.0447 18.6853 10.222 18.648C10.4087 18.6013 10.544 18.5407 10.628 18.466C10.712 18.382 10.754 18.284 10.754 18.172C10.754 17.9947 10.656 17.8547 10.46 17.752C10.264 17.6493 10.0027 17.5653 9.676 17.5C9.35867 17.4253 9.00867 17.3507 8.626 17.276C8.24333 17.192 7.856 17.0847 7.464 16.954C7.08133 16.8233 6.72667 16.6507 6.4 16.436C6.08267 16.2213 5.826 15.9413 5.63 15.596C5.434 15.2413 5.336 14.8027 5.336 14.28C5.336 13.6733 5.504 13.1227 5.84 12.628C6.18533 12.124 6.694 11.7227 7.366 11.424C8.04733 11.1253 8.892 10.976 9.9 10.976C10.5627 10.976 11.216 11.046 11.86 11.186C12.504 11.326 13.0827 11.5407 13.596 11.83L12.602 14.224C12.1167 13.9813 11.6453 13.7993 11.188 13.678C10.74 13.5567 10.3013 13.496 9.872 13.496C9.55467 13.496 9.30267 13.524 9.116 13.58C8.92933 13.636 8.794 13.7107 8.71 13.804C8.63533 13.8973 8.598 14 8.598 14.112C8.598 14.28 8.696 14.4153 8.892 14.518C9.088 14.6113 9.34467 14.6907 9.662 14.756C9.98867 14.8213 10.3433 14.8913 10.726 14.966C11.118 15.0407 11.5053 15.1433 11.888 15.274C12.2707 15.4047 12.6207 15.5773 12.938 15.792C13.2647 16.0067 13.526 16.2867 13.722 16.632C13.918 16.9773 14.016 17.4067 14.016 17.92C14.016 18.5173 13.8433 19.068 13.498 19.572C13.162 20.0667 12.658 20.468 11.986 20.776C11.314 21.0747 10.4693 21.224 9.452 21.224ZM13.9352 21L18.2192 11.2H21.4672L25.7512 21H22.3352L19.1712 12.768H20.4592L17.2952 21H13.9352ZM16.4832 19.292L17.3232 16.912H21.8312L22.6712 19.292H16.4832ZM26.2785 21V11.2H29.5825V18.438H34.0065V21H26.2785ZM37.9431 14.84H42.3111V17.22H37.9431V14.84ZM38.1671 18.508H43.0671V21H34.9191V11.2H42.8851V13.692H38.1671V18.508Z" fill="white" fill-opacity="0.95"/>
</svg>
