<svg width="25" height="24" viewBox="0 0 25 24" fill="none" xmlns="http://www.w3.org/2000/svg">
<path fill-rule="evenodd" clip-rule="evenodd" d="M11.9419 1.67442C6.54745 1.67442 2.17442 6.04745 2.17442 11.4419C2.17442 16.8363 6.54745 21.2093 11.9419 21.2093C17.3363 21.2093 21.7093 16.8363 21.7093 11.4419C21.7093 6.04745 17.3363 1.67442 11.9419 1.67442ZM0.5 11.4419C0.5 5.12269 5.62269 0 11.9419 0C18.261 0 23.3837 5.12269 23.3837 11.4419C23.3837 17.761 18.261 22.8837 11.9419 22.8837C5.62269 22.8837 0.5 17.761 0.5 11.4419Z" fill="#040011"/>
<path fill-rule="evenodd" clip-rule="evenodd" d="M20.8382 20.3382C21.1652 20.0113 21.6953 20.0113 22.0222 20.3382L24.2548 22.5708C24.5817 22.8977 24.5817 23.4278 24.2548 23.7548C23.9278 24.0817 23.3977 24.0817 23.0708 23.7548L20.8382 21.5222C20.5113 21.1953 20.5113 20.6652 20.8382 20.3382Z" fill="#040011"/>
</svg>
