<svg width="14" height="14" viewBox="0 0 14 14" fill="none" xmlns="http://www.w3.org/2000/svg">
<path d="M13.308 1.06445L11.683 11.6016C11.6576 11.8555 11.5052 12.084 11.2767 12.2109C11.1498 12.2617 11.0228 12.3125 10.8705 12.3125C10.7689 12.3125 10.6674 12.2871 10.5658 12.2363L7.46814 10.9414L6.17322 12.8711C6.07166 13.0488 5.89392 13.125 5.71619 13.125C5.43689 13.125 5.20837 12.8965 5.20837 12.6172V10.1797C5.20837 9.97656 5.25916 9.79883 5.36072 9.67188L10.8959 2.5625L3.43103 9.29102L0.815796 8.19922C0.536499 8.07227 0.333374 7.81836 0.333374 7.48828C0.307983 7.13281 0.460327 6.87891 0.739624 6.72656L12.1146 0.251953C12.3685 0.0996094 12.724 0.0996094 12.9779 0.277344C13.2318 0.455078 13.3588 0.759766 13.308 1.06445Z" fill="#D4BDED"/>
</svg>
