<svg width="30" height="32" viewBox="0 0 30 32" fill="none" xmlns="http://www.w3.org/2000/svg">
<path d="M11.8791 32C9.66799 32 7.38987 30.9604 6.92084 28.4439C6.1168 24.159 10.271 20.8069 13.0182 18.5819C13.5925 18.1253 14.0807 17.7269 14.4731 17.3674L15.2676 16.6484C19.0006 13.2672 28.898 4.26999 28.9746 1.54946C28.9746 1.44258 28.9554 1.37457 28.9363 1.3357C27.4718 1.37457 19.3835 8.38966 12.2907 15.259C12.0993 15.4436 11.793 15.4533 11.6015 15.2687C10.4242 14.1805 0.0769047 4.57119 0.000329182 1.25797C-0.00924276 0.752732 0.191768 0.432098 0.364062 0.266923C0.928807 -0.306332 1.97215 -0.422927 7.8206 4.90155C10.7879 7.60265 13.6403 10.4884 13.6691 10.5175C13.8701 10.7215 13.8701 11.0422 13.6691 11.2462C13.468 11.4503 13.1522 11.4503 12.9512 11.2462C8.11733 6.33954 2.25931 1.11223 1.05324 1.05393C1.0341 1.0928 1.02453 1.1511 1.02453 1.23854C1.07239 3.35667 7.45687 10.0123 11.9461 14.1902C12.999 13.1797 16.3301 10.0025 19.7472 6.98081C22.1689 4.84325 24.1599 3.1915 25.6723 2.08385C27.9504 0.402949 29.0607 -0.0245627 29.6255 0.558409C29.8073 0.743016 30.0179 1.06365 29.9988 1.58832C29.9222 4.37687 22.8581 11.1588 15.9568 17.4257L15.1719 18.1447C14.7603 18.5236 14.2338 18.9512 13.6691 19.3981C11.1134 21.4676 7.24629 24.5865 7.93547 28.2593C8.35663 30.4746 10.7018 31.1936 12.7119 30.9312C13.2192 30.8632 13.7265 30.7272 14.1859 30.5329C13.5063 29.9499 13.0469 29.2115 13.0182 28.3856C12.999 27.754 13.6403 27.3459 14.7507 27.2779C15.7557 27.2196 16.8469 27.4528 16.9044 28.269C16.9714 29.0949 16.6555 29.8624 16.0716 30.4843C16.5789 30.698 17.1437 30.8535 17.7276 30.9215C18.5507 31.0089 21.3075 31.0672 22.0637 28.0747C23.0017 24.3339 16.4066 19.6216 16.3396 19.5827C16.1099 19.4175 16.0525 19.0969 16.2152 18.8637C16.3779 18.6305 16.6938 18.5722 16.9235 18.7374C17.2202 18.9512 24.1599 23.9064 23.0496 28.337C22.2934 31.3587 19.7472 32.1846 17.6223 31.9514C16.7799 31.864 15.9185 31.6016 15.1719 31.2033C14.5305 31.5822 13.7456 31.8445 12.8459 31.9709C12.5204 31.9709 12.2046 32 11.8791 32ZM14.0328 28.4342C14.0998 28.9685 14.5114 29.5029 15.1336 29.9402C15.6122 29.5418 15.9089 29.0268 15.8993 28.4147C15.5643 28.2204 14.387 28.2301 14.0328 28.4342Z" fill="#040011"/>
</svg>
